<?xml version="1.0" encoding="utf-8"?>
<svg version="1.1" xmlns="http://www.w3.org/2000/svg" xmlns:xlink="http://www.w3.org/1999/xlink" height="48" width="48">
  <defs>
    <path id="path-1" opacity="1" fill-rule="evenodd" d="M0,24 C0,37.233001708984375 10.765999794006348,48 24,48 C37.23400115966797,48 48,37.233001708984375 48,24 C48,10.765999794006348 37.23400115966797,0 24,0 C10.765999794006348,0 0,10.765999794006348 0,24 L0,24ZM19.195999145507812,4.10099983215332 C19.762998580932617,4.859999656677246 23.486000061035156,9.930000305175781 26.844999313354492,16.101999282836914 C34.1349983215332,13.369999885559082 37.220001220703125,9.222000122070312 37.58899688720703,8.696999549865723 C33.968997955322266,5.484999656677246 29.20800018310547,3.5309998989105225 24,3.5309998989105225 C22.345998764038086,3.5309998989105225 20.737998962402344,3.7289998531341553 19.195999145507812,4.10099983215332 L19.195999145507812,4.10099983215332ZM22.885000228881836,17.334999084472656 C13.295999526977539,19.881000518798828 4.849999904632568,19.8439998626709 3.933000087738037,19.83300018310547 C5.263000011444092,13.471000671386719 9.548999786376953,8.184000015258789 15.28499984741211,5.479000091552734 C15.825000762939453,6.220000267028809 19.488000869750977,11.295999526977539 22.885000228881836,17.334999084472656 L22.885000228881836,17.334999084472656ZM39.86800003051758,11.067000389099121 C39.43600082397461,11.652000427246094 36,16.05500030517578 28.42099952697754,19.150001525878906 C28.897998809814453,20.12700080871582 29.354999542236328,21.1200008392334 29.7810001373291,22.1200008392334 C29.93199920654297,22.4739990234375 30.078998565673828,22.82699966430664 30.222000122070312,23.177000045776367 C37.04399871826172,22.31999969482422 43.82099914550781,23.694000244140625 44.49700164794922,23.838001251220703 C44.45199966430664,18.999000549316406 42.722999572753906,14.555000305175781 39.86800003051758,11.067000389099121 L39.86800003051758,11.067000389099121ZM8.770000457763672,37.737998962402344 C9.235000610351562,36.94300079345703 14.861000061035156,27.62799835205078 25.433000564575195,24.209999084472656 C25.700000762939453,24.124000549316406 25.969999313354492,24.042999267578125 26.240999221801758,23.965999603271484 C25.72599983215332,22.80099868774414 25.166000366210938,21.635000228881836 24.57900047302246,20.48699951171875 C14.342000007629395,23.549999237060547 4.4079999923706055,23.421998977661133 3.510999917984009,23.404998779296875 C3.503999948501587,23.612998962402344 3.5,23.820999145507812 3.5,24.0310001373291 C3.5,29.29599952697754 5.496000289916992,34.10300064086914 8.770000457763672,37.737998962402344 L8.770000457763672,37.737998962402344ZM44.2400016784668,27.28499984741211 C43.53900146484375,27.062999725341797 37.89500045776367,25.380001068115234 31.47100067138672,26.409000396728516 C34.15299987792969,33.777000427246094 35.24300003051758,39.77799987792969 35.454002380371094,41.025001525878906 C40.053001403808594,37.915000915527344 43.32600021362305,32.98899841308594 44.2400016784668,27.28499984741211 L44.2400016784668,27.28499984741211ZM27.63399887084961,27.356000900268555 C30.51300048828125,34.834999084472656 31.70199966430664,41.10300064086914 32.007999420166016,42.9010009765625 C29.54599952697754,43.95000076293945 26.84000015258789,44.53099822998047 24,44.53099822998047 C19.26099967956543,44.53099822998047 14.892999649047852,42.91400146484375 11.416999816894531,40.2030029296875 C11.78600025177002,39.44900131225586 15.935999870300293,31.43000030517578 27.499000549316406,27.4010009765625 C27.54400062561035,27.385000228881836 27.589000701904297,27.371000289916992 27.63399887084961,27.356000900268555 L27.63399887084961,27.356000900268555Z"/>
  </defs>
  <g opacity="1">
    <g opacity="1">
      <use xlink:href="#path-1" fill="rgb(0,0,0)" fill-opacity="1"/>
    </g>
  </g>
</svg>