<?xml version="1.0" encoding="utf-8"?>
<svg version="1.1" xmlns="http://www.w3.org/2000/svg" xmlns:xlink="http://www.w3.org/1999/xlink" height="46.88000000000011" width="48">
  <defs>
    <path id="path-1" opacity="1" fill-rule="evenodd" d="M24,0 C10.74,0 0,10.710299936183814 0,23.9336311423102 C0,34.52426292278246 6.87,43.4694575622209 16.41,46.640663688577 C17.61,46.85008296107222 18.06,46.13207402680291 18.06,45.503816209317264 C18.06,44.9353924696874 18.03,43.05061901723047 18.03,41.04617740906199 C12,42.153107849393834 10.44,39.58024250159549 9.959999999999999,38.23397574984054 C9.69,37.545883854499124 8.52,35.421774090619095 7.5,34.853350350989224 C6.659999999999999,34.40459476707091 5.459999999999999,33.29766432673907 7.470000000000001,33.267747287811176 C9.36,33.237830248883284 10.71,35.00293554562867 11.16,35.72094447989797 C13.32,39.34090619017238 16.77,38.323726866624206 18.150000000000002,37.695469049138566 C18.360000000000003,36.1397830248884 18.990000000000002,35.09268666241233 19.68,34.49434588385457 C14.34,33.89600510529682 8.760000000000002,31.83172941927256 8.760000000000002,22.67711550733891 C8.760000000000002,20.07433312061268 9.690000000000001,17.92030631780476 11.22,16.244952137843047 C10.98,15.646611359285293 10.14,13.1934141671985 11.46,9.902539885130844 C11.46,9.902539885130844 13.47,9.274282067645201 18.060000000000002,12.35573707721764 C19.98,11.817230376515662 22.020000000000003,11.547977026164672 24.06,11.547977026164672 C26.099999999999998,11.547977026164672 28.139999999999997,11.817230376515662 30.06,12.35573707721764 C34.65,9.244365028717313 36.66,9.902539885130844 36.66,9.902539885130844 C37.98,13.1934141671985 37.14,15.646611359285295 36.9,16.244952137843047 C38.42999999999999,17.920306317804762 39.36,20.04441608168479 39.36,22.677115507338915 C39.36,31.861646458200454 33.75,33.89600510529682 28.409999999999997,34.49434588385458 C29.279999999999994,35.24227185705177 30.029999999999994,36.67828972559039 30.029999999999994,38.92206764518197 C30.029999999999994,42.12319081046596 29.999999999999993,44.696056158264305 29.999999999999993,45.50381620931727 C29.999999999999993,46.13207402680292 30.449999999999996,46.88000000000011 31.65,46.64066368857701 C41.13,43.469457562220896 48,34.49434588385457 48,23.9336311423102 C48,10.710299936183814 37.26,0 24,0Z"/>
  </defs>
  <g opacity="1">
    <g opacity="1">
      <use xlink:href="#path-1" fill="rgb(0,0,0)" fill-opacity="1"/>
    </g>
  </g>
</svg>