<?xml version="1.0" encoding="utf-8"?>
<svg version="1.1" xmlns="http://www.w3.org/2000/svg" xmlns:xlink="http://www.w3.org/1999/xlink" height="40" width="40">
  <defs>
    <path id="path-1" opacity="1" fill-rule="evenodd" d="M20,0 C14.567999839782715,0 13.88700008392334,0.023000000044703484 11.753999710083008,0.11999999731779099 C9.625,0.21799999475479126 8.170999526977539,0.5559999942779541 6.89900016784668,1.0499999523162842 C5.584000110626221,1.562000036239624 4.468999862670898,2.244999885559082 3.3570001125335693,3.3559999465942383 C2.244999885559082,4.468999862670898 1.5609999895095825,5.584000110626221 1.0499999523162842,6.89900016784668 C0.5559999942779541,8.17199993133545 0.21699999272823334,9.625 0.11999999731779099,11.753999710083008 C0.023000000044703484,13.887999534606934 0,14.567999839782715 0,20 C0,25.43199920654297 0.023000000044703484,26.11199951171875 0.11999999731779099,28.246000289916992 C0.21699999272823334,30.375 0.5559999942779541,31.827999114990234 1.0499999523162842,33.10100173950195 C1.5609999895095825,34.41600036621094 2.244999885559082,35.53099822998047 3.3570001125335693,36.64400100708008 C4.468999862670898,37.755001068115234 5.584000110626221,38.4379997253418 6.89900016784668,38.95000076293945 C8.170999526977539,39.444000244140625 9.625,39.78200149536133 11.753999710083008,39.880001068115234 C13.88700008392334,39.97700119018555 14.567999839782715,40 20,40 C25.43199920654297,40 26.113000869750977,39.97700119018555 28.246000289916992,39.880001068115234 C30.375,39.78200149536133 31.82900047302246,39.444000244140625 33.10100173950195,38.95000076293945 C34.41600036621094,38.4379997253418 35.53099822998047,37.755001068115234 36.643001556396484,36.64400100708008 C37.755001068115234,35.53099822998047 38.43899917602539,34.41600036621094 38.95000076293945,33.10100173950195 C39.444000244140625,31.827999114990234 39.78300094604492,30.375 39.880001068115234,28.246000289916992 C39.97700119018555,26.11199951171875 40,25.43199920654297 40,20 C40,14.567999839782715 39.97700119018555,13.887999534606934 39.880001068115234,11.753999710083008 C39.78300094604492,9.625 39.444000244140625,8.17199993133545 38.95000076293945,6.89900016784668 C38.43899917602539,5.584000110626221 37.755001068115234,4.468999862670898 36.643001556396484,3.3559999465942383 C35.53099822998047,2.244999885559082 34.41600036621094,1.562000036239624 33.10100173950195,1.0499999523162842 C31.82900047302246,0.5559999942779541 30.375,0.21799999475479126 28.246000289916992,0.11999999731779099 C26.113000869750977,0.023000000044703484 25.43199920654297,0 20,0 L20,0ZM27.97170066833496,4 C29.88170051574707,4.086999893188477 30.918701171875,4.406000137329102 31.608699798583984,4.675000190734863 C32.522701263427734,5.029000282287598 33.17570114135742,5.453999996185303 33.86069869995117,6.140000343322754 C34.54570007324219,6.824999809265137 34.970699310302734,7.477999687194824 35.32569885253906,8.392000198364258 C35.59370040893555,9.081999778747559 35.91270065307617,10.118999481201172 35.999698638916016,12.027999877929688 C36.09469985961914,14.093999862670898 36.11470031738281,14.713000297546387 36.11470031738281,19.94300079345703 C36.11470031738281,25.17300033569336 36.09469985961914,25.79199981689453 35.999698638916016,27.85700035095215 C35.91270065307617,29.767000198364258 35.59370040893555,30.804000854492188 35.32569885253906,31.493999481201172 C34.970699310302734,32.40800094604492 34.54570007324219,33.06100082397461 33.86069869995117,33.746002197265625 C33.17570114135742,34.43199920654297 32.522701263427734,34.85600280761719 31.608699798583984,35.21099853515625 C30.918701171875,35.479000091552734 29.88170051574707,35.79899978637695 27.97170066833496,35.88600158691406 C25.906700134277344,35.97999954223633 25.286701202392578,36 20.056699752807617,36 C14.826700210571289,36 14.207700729370117,35.97999954223633 12.1427001953125,35.88600158691406 C10.23270034790039,35.79899978637695 9.195699691772461,35.479000091552734 8.50570011138916,35.21099853515625 C7.591700077056885,34.85600280761719 6.938699722290039,34.43199920654297 6.253700256347656,33.746002197265625 C5.568699836730957,33.06100082397461 5.143700122833252,32.40800094604492 4.788700103759766,31.493999481201172 C4.520699977874756,30.804000854492188 4.200700283050537,29.767000198364258 4.114699840545654,27.85700035095215 C4.019700050354004,25.79199981689453 3.9997000694274902,25.17300033569336 3.9997000694274902,19.94300079345703 C3.9997000694274902,14.713000297546387 4.019700050354004,14.093999862670898 4.114699840545654,12.027999877929688 C4.200700283050537,10.118999481201172 4.520699977874756,9.081999778747559 4.788700103759766,8.392000198364258 C5.143700122833252,7.477999687194824 5.568699836730957,6.824999809265137 6.253700256347656,6.140000343322754 C6.938699722290039,5.453999996185303 7.591700077056885,5.029000282287598 8.50570011138916,4.675000190734863 C9.195699691772461,4.406000137329102 10.23270034790039,4.086999893188477 12.1427001953125,4 L27.97170066833496,4 L27.97170066833496,4ZM30,10 C31.104000091552734,10 32,9.104000091552734 32,8 C32,6.895999908447266 31.104000091552734,6 30,6 C28.895999908447266,6 28,6.895999908447266 28,8 C28,9.104000091552734 28.895999908447266,10 30,10 L30,10ZM10,20 C10,14.47800064086914 14.47700023651123,10 20,10 C25.522998809814453,10 30,14.47800064086914 30,20 C30,25.52199935913086 25.522998809814453,30 20,30 C14.47700023651123,30 10,25.52199935913086 10,20 L10,20ZM20,26 C16.687000274658203,26 14,23.312999725341797 14,20 C14,16.687000274658203 16.687000274658203,14 20,14 C23.312999725341797,14 26,16.687000274658203 26,20 C26,23.312999725341797 23.312999725341797,26 20,26 L20,26Z"/>
  </defs>
  <g opacity="1">
    <g opacity="1">
      <use xlink:href="#path-1" fill="rgb(0,0,0)" fill-opacity="1"/>
    </g>
  </g>
</svg>