<svg xmlns="http://www.w3.org/2000/svg" xmlns:xlink="http://www.w3.org/1999/xlink" viewBox="0 0 50 115"><defs><style>.a{clip-path:url(#b);}.b,.g{fill:#fff;}.c,.d,.f{fill:none;}.c{stroke:#fff;stroke-width:10px;}.e,.g{stroke:none;}</style><clipPath id="b"><rect width="50" height="115"/></clipPath></defs><g id="a" class="a"><rect class="b" width="10" height="70" rx="2" transform="translate(15 45)"/><g class="c" transform="translate(0)"><circle class="e" cx="20" cy="20" r="20"/><circle class="f" cx="20" cy="20" r="15"/></g><g class="d" transform="translate(13 53)"><path class="e" d="M37,62h0a20,20,0,1,1,0-40V32.6A9.7,9.7,0,0,0,37,52V62Z"/><path class="g" d="M 36.99990844726562 62.00010299682617 L 36.99890899658203 62.00010299682617 C 34.29929351806641 61.99997711181641 31.68041610717773 61.47121047973633 29.21503067016602 60.42844009399414 C 26.83344650268555 59.4211311340332 24.69458389282227 57.97908401489258 22.85786247253418 56.14234924316406 C 21.02110862731934 54.30557632446289 19.57906150817871 52.16671752929688 18.57176971435547 49.78517913818359 C 17.52889251708984 47.31949996948242 17.00009155273438 44.70028686523438 17.00009155273438 42.00030136108398 C 17.00009155273438 39.30031585693359 17.52889251708984 36.68105316162109 18.57176971435547 34.21530151367188 C 19.57907676696777 31.83363914489746 21.0211238861084 29.69465446472168 22.85786247253418 27.85780906677246 C 24.69463157653809 26.02094650268555 26.83349227905273 24.57877731323242 29.21503067016602 23.57140922546387 C 31.68072319030762 22.5284252166748 34.2999382019043 21.99960899353027 36.99990844726562 21.99960899353027 L 36.99990844726562 32.59531784057617 C 31.64892387390137 32.59631729125977 27.29789161682129 36.94856262207031 27.29789161682129 42.29821014404297 C 27.29789161682129 47.64791488647461 31.65019989013672 52.00020980834961 36.99990844726562 52.00020980834961 L 36.99990844726562 61.99909973144531 L 36.99990844726562 62.00010299682617 Z"/></g></g></svg>