<?xml version="1.0" encoding="utf-8"?>
<svg version="1.1" xmlns="http://www.w3.org/2000/svg" xmlns:xlink="http://www.w3.org/1999/xlink" height="40" width="40">
  <defs>
    <path id="path-1" opacity="1" fill-rule="evenodd" d="M2,40 L38,40 C39.104000091552734,40 40,39.104000091552734 40,38 L40,2 C40,0.8960000276565552 39.104000091552734,0 38,0 L2,0 C0.8960000276565552,0 0,0.8960000276565552 0,2 L0,38 C0,39.104000091552734 0.8960000276565552,40 2,40 L2,40ZM9.364999771118164,12.739999771118164 C7.50600004196167,12.739999771118164 6,11.229000091552734 6,9.368999481201172 C6,7.511000156402588 7.50600004196167,6 9.364999771118164,6 C11.221000671386719,6 12.729000091552734,7.511000156402588 12.729000091552734,9.368999481201172 C12.729000091552734,11.229000091552734 11.221000671386719,12.739999771118164 9.364999771118164,12.739999771118164 L9.364999771118164,12.739999771118164ZM28.201000213623047,34 L34,34 L34,23.74100112915039 C34,18.704999923706055 32.915000915527344,14.831999778747559 27.03900146484375,14.831999778747559 C24.215999603271484,14.831999778747559 22.322999954223633,16.381999969482422 21.548999786376953,17.85300064086914 L21.472000122070312,17.85300064086914 L21.472000122070312,15.29699993133545 L15.904000282287598,15.29699993133545 L15.904000282287598,34 L21.702999114990234,34 L21.702999114990234,24.748001098632812 C21.702999114990234,22.30900001525879 22.166000366210938,19.94499969482422 25.18600082397461,19.94499969482422 C28.160999298095703,19.94499969482422 28.201000213623047,22.735000610351562 28.201000213623047,24.904998779296875 L28.201000213623047,34 L28.201000213623047,34ZM12.265999794006348,34 L6.4629998207092285,34 L6.4629998207092285,15.29699993133545 L12.265999794006348,15.29699993133545 L12.265999794006348,34 L12.265999794006348,34Z"/>
  </defs>
  <g opacity="1">
    <g opacity="1">
      <use xlink:href="#path-1" fill="rgb(0,0,0)" fill-opacity="1"/>
    </g>
  </g>
</svg>