<?xml version="1.0" encoding="utf-8"?>
<svg version="1.1" xmlns="http://www.w3.org/2000/svg" xmlns:xlink="http://www.w3.org/1999/xlink" height="40" width="40">
  <defs>
    <path id="path-1" opacity="1" fill-rule="evenodd" d="M40,0 L0,0 L0,40 L40,40 L40,0 L40,0ZM9.545452117919917,25.25452613830566 L9.545452117919917,13.377590179443358 C9.578838348388672,13.047724723815902 9.453046798706048,12.721688270568837 9.206732749938972,12.49967575073242 L6.697694778442382,9.477140426635737 L6.697694778442382,9.025640487670898 L14.488258361816404,9.025640487670898 L20.509948730468743,22.231990814208963 L25.80401802062986,9.025640487670898 L33.23077011108396,9.025640487670898 L33.23077011108396,9.477140426635737 L31.085540771484347,11.533969879150394 C30.900600433349606,11.674942970275891 30.808860778808565,11.906642913818358 30.847183227539084,12.135968208312987 L30.847183227539084,27.248645782470692 C30.808860778808565,27.47797203063963 30.900600433349606,27.709671020507802 31.085540771484347,27.850645065307617 L33.180587768554666,29.907474517822262 L33.180587768554666,30.358974456787085 L22.64262962341309,30.358974456787085 L22.64262962341309,29.907474517822262 L24.81294822692869,27.80047798156737 C25.026216506958004,27.587270736694332 25.026216506958004,27.52456283569335 25.026216506958004,27.198480606079087 L25.026216506958004,14.982921600341786 L18.991979598999013,30.30880737304687 L18.17654228210448,30.30880737304687 L11.151236534118654,14.982921600341786 L11.151236534118654,25.25452613830566 C11.092662811279306,25.686372756957986 11.236085891723642,26.121149063110348 11.54013729095458,26.43343925476074 L14.362804412841788,29.857307434082042 L14.362804412841788,30.30880737304687 L6.358974456787101,30.30880737304687 L6.358974456787101,29.857307434082042 L9.181642532348633,26.43343925476074 C9.483479499816902,26.120630264282227 9.618539810180664,25.682970046997077 9.545452117919917,25.25452613830566 L9.545452117919917,25.25452613830566Z"/>
  </defs>
  <g opacity="1">
    <g opacity="1">
      <use xlink:href="#path-1" fill="rgb(0,0,0)" fill-opacity="1"/>
    </g>
  </g>
</svg>