<?xml version="1.0" encoding="utf-8"?>
<svg version="1.1" xmlns="http://www.w3.org/2000/svg" xmlns:xlink="http://www.w3.org/1999/xlink" height="40" width="40">
  <defs>
    <rect id="rect-1" opacity="1" x="0" y="0" width="40" height="40"/>
    <path id="path-2" opacity="1" fill-rule="evenodd" d="M11.055555555555502,7 L37.83333333333319,7 C39.02914921973687,7.000000000000001 39.999999999999886,7.9708507802630155 39.999999999999886,9.166666666666702 C39.999999999999886,10.362482553070386 39.02914921973687,11.333333333333401 37.83333333333319,11.333333333333401 L11.055555555555502,11.333333333333403 C9.859739669151816,11.333333333333401 8.8888888888888,10.362482553070386 8.8888888888888,9.166666666666702 C8.8888888888888,7.9708507802630155 9.859739669151816,7 11.055555555555502,7Z"/>
    <path id="path-3" opacity="1" fill-rule="evenodd" d="M2.166666666666693,17.833333333334053 L37.83333333333331,17.833333333334053 C39.029149219736986,17.833333333334053 40,18.804184113597067 40,20.000000000000746 C40,21.19581588640443 39.029149219736986,22.16666666666744 37.83333333333331,22.16666666666744 L2.166666666666693,22.16666666666744 C0.9708507802630122,22.16666666666744 4.440892098500626e-16,21.19581588640443 0,20.000000000000746 C0,18.804184113597067 0.9708507802630115,17.833333333334053 2.166666666666693,17.833333333334053Z"/>
    <path id="path-4" opacity="1" fill-rule="evenodd" d="M26.61111111111115,28.666666666666686 L37.83333333333326,28.666666666666686 C39.02914921973694,28.666666666666686 39.99999999999994,29.637517446929696 39.99999999999994,30.83333333333338 C39.99999999999994,32.02914921973706 39.02914921973694,33.00000000000007 37.83333333333326,33.00000000000007 L26.61111111111115,33.00000000000007 C25.415295224707467,33.00000000000007 24.444444444444457,32.02914921973706 24.444444444444457,30.83333333333338 C24.444444444444457,29.637517446929696 25.415295224707467,28.666666666666686 26.61111111111115,28.666666666666686Z"/>
  </defs>
  <g opacity="1">
    <g opacity="1"/>
    <g opacity="1">
      <g opacity="1">
        <use xlink:href="#path-2" fill="rgb(0,0,0)" fill-opacity="1"/>
      </g>
      <g opacity="1">
        <use xlink:href="#path-3" fill="rgb(0,0,0)" fill-opacity="1"/>
      </g>
      <g opacity="1">
        <use xlink:href="#path-4" fill="rgb(0,0,0)" fill-opacity="1"/>
      </g>
    </g>
  </g>
</svg>